<?xml version="1.0" encoding="UTF-8" standalone="no"?>
<svg
   xmlns:dc="http://purl.org/dc/elements/1.1/"
   xmlns:cc="http://creativecommons.org/ns#"
   xmlns:rdf="http://www.w3.org/1999/02/22-rdf-syntax-ns#"
   xmlns:svg="http://www.w3.org/2000/svg"
   xmlns="http://www.w3.org/2000/svg"
   xmlns:sodipodi="http://sodipodi.sourceforge.net/DTD/sodipodi-0.dtd"
   xmlns:inkscape="http://www.inkscape.org/namespaces/inkscape"
   version="1.1"
   id="Capa_1"
   x="0px"
   y="0px"
   width="268.832px"
   height="268.832px"
   viewBox="0 0 268.832 268.832"
   style="enable-background:new 0 0 268.832 268.832;"
   xml:space="preserve"
   sodipodi:docname="arrow-pointing-to-right.svg"
   inkscape:version="1.0.1 (3bc2e813f5, 2020-09-07)"><metadata
   id="metadata41"><rdf:RDF><cc:Work
       rdf:about=""><dc:format>image/svg+xml</dc:format><dc:type
         rdf:resource="http://purl.org/dc/dcmitype/StillImage" /></cc:Work></rdf:RDF></metadata><defs
   id="defs39" /><sodipodi:namedview
   pagecolor="#ffffff"
   bordercolor="#666666"
   borderopacity="1"
   objecttolerance="10"
   gridtolerance="10"
   guidetolerance="10"
   inkscape:pageopacity="0"
   inkscape:pageshadow="2"
   inkscape:window-width="1366"
   inkscape:window-height="724"
   id="namedview37"
   showgrid="false"
   inkscape:zoom="2.8642423"
   inkscape:cx="134.416"
   inkscape:cy="134.416"
   inkscape:window-x="0"
   inkscape:window-y="81"
   inkscape:window-maximized="1"
   inkscape:current-layer="Capa_1" />
<g
   id="g4"
   transform="matrix(-1,0,0,1,268.8325,0)">
	<path
   d="m 265.171,125.577 -80,-80 c -4.881,-4.881 -12.797,-4.881 -17.678,0 -4.882,4.882 -4.882,12.796 0,17.678 l 58.661,58.661 H 12.5 c -6.903,0 -12.5,5.597 -12.5,12.5 0,6.902 5.597,12.5 12.5,12.5 h 213.654 l -58.659,58.661 c -4.882,4.882 -4.882,12.796 0,17.678 2.44,2.439 5.64,3.661 8.839,3.661 3.199,0 6.398,-1.222 8.839,-3.661 l 79.998,-80 c 4.882,-4.882 4.882,-12.796 0,-17.678 z"
   id="path2" />
</g>
<g
   id="g6">
</g>
<g
   id="g8">
</g>
<g
   id="g10">
</g>
<g
   id="g12">
</g>
<g
   id="g14">
</g>
<g
   id="g16">
</g>
<g
   id="g18">
</g>
<g
   id="g20">
</g>
<g
   id="g22">
</g>
<g
   id="g24">
</g>
<g
   id="g26">
</g>
<g
   id="g28">
</g>
<g
   id="g30">
</g>
<g
   id="g32">
</g>
<g
   id="g34">
</g>
</svg>
