<?xml version="1.0" encoding="UTF-8" standalone="no"?>
<svg
   xmlns:dc="http://purl.org/dc/elements/1.1/"
   xmlns:cc="http://creativecommons.org/ns#"
   xmlns:rdf="http://www.w3.org/1999/02/22-rdf-syntax-ns#"
   xmlns:svg="http://www.w3.org/2000/svg"
   xmlns="http://www.w3.org/2000/svg"
   xmlns:sodipodi="http://sodipodi.sourceforge.net/DTD/sodipodi-0.dtd"
   xmlns:inkscape="http://www.inkscape.org/namespaces/inkscape"
   width="210mm"
   height="297mm"
   viewBox="0 0 210 297"
   version="1.1"
   id="svg1798"
   inkscape:version="1.0.1 (3bc2e813f5, 2020-09-07)"
   sodipodi:docname="boomarkerk.svg">
  <defs
     id="defs1792" />
  <sodipodi:namedview
     id="base"
     pagecolor="#ffffff"
     bordercolor="#666666"
     borderopacity="1.0"
     inkscape:pageopacity="0.0"
     inkscape:pageshadow="2"
     inkscape:zoom="0.35"
     inkscape:cx="-291.42857"
     inkscape:cy="560"
     inkscape:document-units="mm"
     inkscape:current-layer="layer1"
     inkscape:document-rotation="0"
     showgrid="false"
     inkscape:window-width="1366"
     inkscape:window-height="724"
     inkscape:window-x="0"
     inkscape:window-y="0"
     inkscape:window-maximized="1" />
  <metadata
     id="metadata1795">
    <rdf:RDF>
      <cc:Work
         rdf:about="">
        <dc:format>image/svg+xml</dc:format>
        <dc:type
           rdf:resource="http://purl.org/dc/dcmitype/StillImage" />
        <dc:title></dc:title>
      </cc:Work>
    </rdf:RDF>
  </metadata>
  <g
     inkscape:label="Layer 1"
     inkscape:groupmode="layer"
     id="layer1">
    <g
       id="g1778"
       transform="matrix(0.26458333,0,0,0.26458333,-59.039881,115.8497)">
      <path
         fill-rule="evenodd"
         clip-rule="evenodd"
         d="m 122.667,525 c 0,0.518 0.565,0.838 1.009,0.572 l 1.324,-0.795 1.324,0.795 c 0.444,0.266 1.009,-0.054 1.009,-0.572 v -6.667 c 0,-0.368 -0.298,-0.666 -0.666,-0.666 h -3.334 c -0.368,0 -0.666,0.298 -0.666,0.666 z m 1.99,-1.572 -0.657,0.395 V 519 h 2 v 4.823 l -0.657,-0.395 c -0.211,-0.126 -0.475,-0.126 -0.686,0 z"
         fill="#e66cff"
         fill-opacity="0.98"
         id="path1406" />
      <path
         d="m 121.333,519 h 7.334 c 1.104,0 2,0.895 2,2 v 8 c 0,1.105 -0.896,2 -2,2 H 122 c -0.368,0 -0.667,0.298 -0.667,0.667 0,0.368 0.299,0.666 0.667,0.666 h 6.667 c 1.841,0 3.333,-1.492 3.333,-3.333 v -8 c 0,-1.841 -1.492,-3.333 -3.333,-3.333 h -8 c -0.369,0 -0.667,0.298 -0.667,0.666 V 529 c 0,0.368 0.298,0.667 0.667,0.667 0.368,0 0.666,-0.299 0.666,-0.667 z"
         fill="#9013fe"
         id="path1408" />
      <path
         id="circle1410"
         style="fill:#ff9f00"
         d="m 129.33367,529 a 0.66666698,0.66666698 0 0 1 -0.66666,0.66667 A 0.66666698,0.66666698 0 0 1 128.00034,529 0.66666698,0.66666698 0 0 1 128.66701,528.33333 0.66666698,0.66666698 0 0 1 129.33367,529 Z" />
    </g>
  </g>
</svg>
