<?xml version="1.0" encoding="UTF-8" standalone="no"?>
<svg
   xmlns:dc="http://purl.org/dc/elements/1.1/"
   xmlns:cc="http://creativecommons.org/ns#"
   xmlns:rdf="http://www.w3.org/1999/02/22-rdf-syntax-ns#"
   xmlns:svg="http://www.w3.org/2000/svg"
   xmlns="http://www.w3.org/2000/svg"
   xmlns:sodipodi="http://sodipodi.sourceforge.net/DTD/sodipodi-0.dtd"
   xmlns:inkscape="http://www.inkscape.org/namespaces/inkscape"
   data-name="Layer 1"
   id="Layer_1"
   viewBox="0 0 48 48"
   version="1.1"
   sodipodi:docname="profile.svg"
   inkscape:version="1.0.1 (3bc2e813f5, 2020-09-07)">
  <metadata
     id="metadata13">
    <rdf:RDF>
      <cc:Work
         rdf:about="">
        <dc:format>image/svg+xml</dc:format>
        <dc:type
           rdf:resource="http://purl.org/dc/dcmitype/StillImage" />
        <dc:title></dc:title>
      </cc:Work>
    </rdf:RDF>
  </metadata>
  <defs
     id="defs11" />
  <sodipodi:namedview
     pagecolor="#ffffff"
     bordercolor="#666666"
     borderopacity="1"
     objecttolerance="10"
     gridtolerance="10"
     guidetolerance="10"
     inkscape:pageopacity="0"
     inkscape:pageshadow="2"
     inkscape:window-width="1920"
     inkscape:window-height="1008"
     id="namedview9"
     showgrid="false"
     inkscape:zoom="1"
     inkscape:cx="32.322211"
     inkscape:cy="46.655022"
     inkscape:window-x="1366"
     inkscape:window-y="28"
     inkscape:window-maximized="1"
     inkscape:current-layer="Layer_1"
     inkscape:document-rotation="0" />
  <g
     id="g73">
    <path
       d="M24,21A10,10,0,1,1,34,11,10,10,0,0,1,24,21ZM24,5a6,6,0,1,0,6,6A6,6,0,0,0,24,5Z"
       id="path4" />
    <path
       d="M 20,23 C 11.163444,23 4,30.163444 4,39 v 6 c 0,1.104569 0.8954305,2 2,2 H 7.9525375 L 8,43 v 0 -4 C 8,32.372583 13.372583,27 20,27 h 8 c 6.627417,0 12,5.372583 12,12 v 4 0 L 39.936759,46.975327 42,47 c 1.104491,0.01321 2,-0.895431 2,-2 V 39 C 44,30.163444 36.836556,23 28,23 Z"
       id="path6"
       sodipodi:nodetypes="sssscccsssscccsssss" />
  </g>
</svg>
